<?xml version="1.0" encoding="utf-8"?>
<!-- Generator: Adobe Illustrator 24.1.0, SVG Export Plug-In . SVG Version: 6.00 Build 0)  -->
<svg version="1.1" id="Ebene_1" xmlns="http://www.w3.org/2000/svg" xmlns:xlink="http://www.w3.org/1999/xlink" x="0px" y="0px"
	 viewBox="0 0 435.5 148.3" style="enable-background:new 0 0 435.5 148.3;" xml:space="preserve" fill="#474747" >
<style type="text/css">
	.st0{stroke:#000000;stroke-width:0.75;stroke-miterlimit:10;}
	.st1{display:none;}
	.st2{display:inline;}
	.st3{display:inline;fill:none;}
	
</style>
<g id="Ebene_1_1_">
	<g>
		<g>
			<path class="st0" d="M51.9,87.9c0,3.7-1.2,7.1-3.5,9.6c-7.7,8.4-27.2,5.3-27.2-9.4V44.5H10.9v-0.8h10.3V28.9
				c0,0,7.1-0.2,10.9-9.8c0,0,0.3,0,0.7,0c0,0.3,0,12,0,24.6h13.7v0.8H32.7c0,19.8,0,43.6,0,43.6c0,10.1,7.2,16.6,15.1,8.9
				c2.3-2.3,3.3-5.6,3.3-9.1L51.9,87.9L51.9,87.9z"/>
			<path class="st0" d="M104.6,51.5c4.9,5.4,7.5,12.9,7.5,21s-2.6,15.6-7.5,20.9c-2.5,2.7-5.4,4.9-8.8,6.3
				c-3.5,1.6-7.5,2.4-11.8,2.4c-4.2,0-8.1-0.8-11.6-2.4c-3.4-1.5-6.3-3.6-8.8-6.3C58.7,88.1,56,80.6,56,72.5s2.7-15.6,7.6-21
				c2.5-2.7,5.4-4.9,8.8-6.3c3.6-1.6,7.5-2.3,11.6-2.3c4.3,0,8.1,0.7,11.8,2.3C99.2,46.6,102.1,48.8,104.6,51.5z M100.1,72.8
				c0-10.9-2.1-27.4-12.7-29.2c-1.1-0.1-2.1-0.1-3.4-0.1c-1,0-2,0-3,0.1c-10.6,1.7-12.8,18.2-12.8,29.2c0,9.6,1.5,28.6,15.1,28.6
				C98.9,101.4,100.1,85.5,100.1,72.8z"/>
			<path class="st0" d="M183.8,101.2h2.1v0.8h-10.4h-0.3h-0.1h-10.7h-0.1h-0.3h-10.5v-0.8h2.1c6-0.1,8.4-0.6,8.4-9.6V66.7
				c0-8.5-0.9-23.4-13.5-22.5c-4.9,0.4-9,2.7-12.4,6.7c-0.7,0.8-1.4,1.7-2,2.7c0,11.3,0,29.3,0,39.8c0.5,6.9,2.8,7.7,8.2,7.8h2.1
				v0.3v0.3c-10.4,0-10.4,0-32.5,0v-0.7h2.1c6-0.1,8.2-1,8.5-9.6V54c-0.1-8.9-2.4-9.8-8.5-9.9h-2.1v-0.7H136c0,0,0,3.6,0,8.9
				c0.5-0.6,1-1.2,1.5-1.8c4.1-4.8,9.1-7,15.1-7c6.1,0,11.9,2.4,16.2,6.7c4.3,4.2,6.7,9.8,6.8,15.7c0,0.1,0-1.2,0,26.1
				C175.5,100.5,178.4,101.2,183.8,101.2z"/>
			<path class="st0" d="M202.7,101.9h-0.3h-10.5v-0.8h2.1c6-0.1,8.2-1,8.4-9.6V53.9c-0.1-8.9-2.4-9.8-8.4-9.9h-2.1v-0.3v-0.3h22
				c0,0,0,33.8,0,50.1c0.5,7,2.8,7.7,8.4,7.8h2.1v0.8h-10.5h-0.3H202.7z M195.4,34.8C211,18,211.6,17.5,211.9,17.2
				c2.1-1.6,5.2-1.1,6.8,1c1.6,2.1,1.1,5.2-1,6.7c-0.3,0.3-0.7,0.6-21.5,10.7L195.4,34.8z"/>
			<path class="st0" d="M253.4,43.8c4,0,7.8,0.8,11.3,2.1c1.7,0.7,3.4,1.6,4.9,2.6c0-3.1,0-4.8,0-4.8h22v0.8h-2.1
				c-6,0.1-8.4,1-8.4,9.9v67.1c0.1,8.7,2.5,9.5,8.4,9.6h2.1v0.8c-22,0-22,0-32.5,0v-0.8h2.1c5.5,0,7.9-0.8,8.4-7.8
				c0-7.2,0-17.5,0-29.2c-0.8,1.2-1.9,2.4-3,3.5c-3.7,3.4-8.4,5.3-13.1,5.3c-14.6,0-26.4-13.3-26.4-29.6
				C227,57.1,238.8,43.8,253.4,43.8z M255.2,102.3c4-0.3,7.7-2.1,10.9-5c1.4-1.4,2.6-2.8,3.5-4.4c0-16.9,0-34.9,0-43.6
				c-1.6-1.1-3.3-2-5.2-2.7c-2.4-1-4.9-1.6-7.6-1.9c-16.3-1.6-17.2,16.4-17.2,30.2C239.6,91.3,245,103,255.2,102.3z"/>
			<path class="st0" d="M367.2,101.3h2.2v0.7h-14.8h-7.3c0,0,0-3.5,0-8.9c-0.5,0.7-0.9,1.4-1.5,1.9c-4.1,4.6-9,7-15,7
				c-6.1,0-12-2.4-16.3-6.7c-4.2-4.3-6.7-9.7-6.7-15.7c0-0.1,0,0,0-27.4c0-7-2.8-7.8-8.4-7.8h-2.1V44v-0.3c10.5,0,10.5,0,22,0v35
				c0,8.4,0.9,23.4,13.5,22.5c4.9-0.5,9-2.7,12.4-6.7c0.8-0.8,1.5-1.7,2-2.7c0-11.3,0-29,0-39.6c0-7-2.7-7.7-8.2-7.8h-2.2v-0.3v-0.4
				c10.4,0,10.4,0,22,0v47.8C358.9,100.4,361.2,101.2,367.2,101.3z"/>
			<path class="st0" d="M383,70c0,0.8,0,1.6,0,2.4c0,10.4,1.1,28.6,15.9,28.6c0.8,0,1.2,0,1.6,0c2.4,0,4.6-0.6,6.9-1.5
				c2.4-0.9,4.5-2.3,6.5-4c4-3.3,6.9-7.8,8.1-12.7l0.7,0.2c-1.4,5-4.3,9.6-8.4,13c-2,1.8-4.3,3.2-6.8,4.1c-2.5,1-5.2,1.6-7.8,1.6
				c-3.2,0-6-0.5-8.8-1.2c-1.1-0.3-2.3-0.7-3.3-1.1c-3.5-1.5-6.5-3.6-9.2-6.3c-5-5.4-7.7-12.9-7.7-21c0-8,2.8-15.5,7.9-20.9
				c2.6-2.7,5.7-4.9,9-6.3c3.6-1.6,7.6-2.4,11.6-2.4c3.8,0,7.7,0.8,10.8,2.4c3,1.5,5.8,3.6,7.9,6.3c3.8,4.8,6.3,12.5,6.3,18.9h-9.3
				L383,70L383,70z M383.1,69.2h29.7c0-1.6-0.1-3.6-0.2-5c-0.9-10.1-3.8-20.1-11.9-21c-2.4-0.1-3.7-0.1-6,0.3
				C385.9,45.8,383.5,58.9,383.1,69.2z"/>
		</g>
	</g>
</g>
<g id="Ebene_2_1_" class="st1">
	<circle class="st2" cx="1195.3" cy="-40.3" r="18.3"/>
	<g class="st2">
		<path d="M1217.3-40.3c0,5.7-1.9,11.6-5.8,16.1c-2,2.2-4.4,4.1-7.2,5.3c-2.8,1.2-5.8,1.8-8.8,1.7c-3-0.1-6-0.9-8.7-2.1
			s-5.1-3-7.1-5.1c-4.1-4.2-6.6-9.8-6.9-15.7c-0.1-2.9,0.3-6,1.4-8.8c1.1-2.8,2.7-5.4,4.8-7.6c2.1-2.2,4.7-4,7.5-5.2
			c2.8-1.2,5.9-1.8,8.9-1.8c3.1,0.1,6.1,0.7,8.9,1.9c2.8,1.2,5.2,3.1,7.2,5.4C1215.4-51.8,1217.3-46,1217.3-40.3z M1217-40.3
			c0-2.8-0.7-5.7-1.9-8.2c-1.2-2.5-3-4.7-5-6.5c-4.2-3.5-9.4-5.5-14.7-5.5c-5.3,0-10.5,2.1-14.4,5.8c-3.8,3.7-6.3,8.9-6.6,14.4
			c-0.1,2.7,0.3,5.5,1.3,8.1c1,2.6,2.6,5,4.6,6.9c2,1.9,4.4,3.4,7,4.3c2.6,0.9,5.3,1.3,8,1.2c2.7-0.1,5.3-0.6,7.8-1.6
			c2.5-1,4.8-2.4,6.9-4.2c2.1-1.8,3.8-4,5-6.5C1216.3-34.6,1217-37.4,1217-40.3z"/>
	</g>
	<circle class="st2" cx="1195.3" cy="-40.3" r="21.8"/>
	<circle class="st2" cx="1195.3" cy="-40.3" r="25.8"/>
	<circle class="st2" cx="1195.2" cy="-40" r="31.6"/>
	<g class="st2">
		<path d="M1231.9-40.3c0.1,9.6-3.8,19.1-10.6,26c-3.4,3.4-7.4,6.3-11.8,8.2c-4.4,1.9-9.3,3-14.2,3.1c-9.8,0.2-19.6-3.6-26.7-10.5
			c-3.5-3.5-6.4-7.6-8.3-12.2c-1.9-4.6-2.9-9.6-2.9-14.5c0-5,1-9.9,2.9-14.5c1.9-4.6,4.8-8.8,8.3-12.2c7.1-6.9,17-10.8,26.7-10.5
			c4.9,0.1,9.7,1.2,14.2,3.1c4.4,1.9,8.5,4.8,11.8,8.2C1228-59.4,1231.9-49.8,1231.9-40.3z M1231.9-40.3c0-4.8-1-9.6-2.8-13.9
			c-1.8-4.4-4.6-8.4-8-11.7c-6.8-6.7-16.3-10.3-25.7-10.1c-4.7,0.1-9.3,1.1-13.6,3c-4.3,1.9-8.1,4.6-11.3,7.9
			c-6.4,6.6-10.2,15.7-10.1,24.9c-0.1,9.2,3.7,18.3,10.1,24.9c3.2,3.3,7.1,6,11.3,7.9c4.2,1.9,8.9,2.9,13.6,3
			c9.4,0.2,18.8-3.4,25.7-10.1c3.4-3.3,6.2-7.3,8-11.7C1230.9-30.7,1231.8-35.5,1231.9-40.3z"/>
	</g>
	<g class="st2">
		<path d="M1239.4-40.3c0.1,11.5-4.6,23-12.8,31.3c-4.1,4.1-8.9,7.5-14.3,9.8c-5.3,2.3-11.2,3.6-17,3.7c-5.9,0.1-11.8-1-17.2-3.2
			c-5.5-2.2-10.6-5.4-14.8-9.6c-4.2-4.2-7.7-9.2-10-14.6c-2.3-5.5-3.5-11.4-3.5-17.4c0-6,1.2-11.9,3.5-17.4s5.7-10.5,10-14.7
			c4.2-4.2,9.3-7.4,14.8-9.6c5.5-2.2,11.4-3.2,17.2-3.2c5.9,0.1,11.7,1.3,17,3.7c5.3,2.3,10.2,5.7,14.3,9.8
			C1234.8-63.3,1239.5-51.8,1239.4-40.3z M1239.4-40.3c0-5.8-1.2-11.5-3.4-16.8c-2.2-5.3-5.6-10.1-9.6-14.2c-4.1-4-9-7.2-14.3-9.3
			c-5.3-2.1-11-3.1-16.7-3c-5.7,0.1-11.3,1.3-16.5,3.6c-5.2,2.2-9.8,5.5-13.8,9.5c-7.8,8-12.4,19.1-12.3,30.2
			c-0.1,11.2,4.5,22.2,12.3,30.2c3.9,4,8.6,7.3,13.8,9.5c5.2,2.2,10.8,3.4,16.5,3.6c5.7,0.1,11.4-0.9,16.7-3
			c5.3-2.1,10.2-5.2,14.3-9.3c4.1-4,7.4-8.9,9.6-14.2C1238.2-28.8,1239.4-34.5,1239.4-40.3z"/>
	</g>
	<g class="st2">
		<path d="M1247.5-40.3c0.1,13.7-5.5,27.3-15.1,37.1c-4.8,4.9-10.6,8.9-16.9,11.6c-6.3,2.7-13.2,4.2-20.2,4.3
			c-6.9,0.1-13.9-1.2-20.4-3.8c-6.5-2.6-12.4-6.4-17.4-11.4c-5-4.9-9-10.8-11.7-17.3c-2.7-6.5-4.1-13.5-4.1-20.5
			c0-7,1.4-14.1,4.1-20.5c2.7-6.5,6.8-12.4,11.7-17.3c5-4.9,11-8.8,17.5-11.3c6.5-2.6,13.4-3.9,20.4-3.8c6.9,0.1,13.8,1.6,20.2,4.3
			c6.3,2.7,12.1,6.7,16.9,11.6C1242.1-67.6,1247.6-54,1247.5-40.3z M1247.5-40.3c0-6.8-1.4-13.7-4-20c-2.6-6.3-6.6-12-11.4-16.8
			c-4.9-4.8-10.7-8.5-17-11c-6.3-2.5-13.1-3.7-19.8-3.7c-6.7,0.1-13.4,1.5-19.6,4.2c-6.2,2.6-11.7,6.5-16.4,11.3
			c-9.4,9.5-14.8,22.7-14.7,36c-0.1,13.3,5.3,26.5,14.7,36c4.7,4.8,10.3,8.6,16.4,11.3c6.2,2.6,12.8,4.1,19.6,4.2
			c6.7,0.1,13.5-1.1,19.8-3.7c6.3-2.5,12.1-6.3,17-11c4.8-4.8,8.8-10.5,11.4-16.8C1246.2-26.6,1247.5-33.4,1247.5-40.3z"/>
	</g>
	<g class="st2">
		<path d="M1257.7-40.3c0.1,16.3-6.6,32.6-18.1,44.2c-5.8,5.8-12.6,10.6-20.2,13.8c-7.6,3.2-15.8,5-24,5.1s-16.6-1.4-24.2-4.5
			c-7.7-3.1-14.8-7.7-20.7-13.6c-5.9-5.9-10.7-12.9-13.9-20.6c-3.2-7.7-4.9-16.1-4.9-24.4c0-8.3,1.7-16.7,4.9-24.4
			c3.2-7.7,8-14.7,13.9-20.6c5.9-5.8,13-10.5,20.7-13.6c7.7-3.1,16-4.6,24.2-4.5c8.3,0.1,16.5,1.8,24,5.1c7.6,3.2,14.4,8,20.2,13.8
			C1251.1-72.8,1257.8-56.6,1257.7-40.3z M1257.7-40.3c0-8.2-1.6-16.3-4.8-23.8c-3.1-7.5-7.8-14.4-13.6-20.1
			c-5.8-5.7-12.7-10.2-20.2-13.2c-7.5-3-15.6-4.5-23.7-4.4c-8.1,0.1-16.1,1.8-23.4,4.9c-7.4,3.2-14.1,7.8-19.7,13.5
			c-11.3,11.4-17.8,27.2-17.7,43.2c-0.1,16,6.4,31.8,17.7,43.2c5.6,5.7,12.3,10.3,19.7,13.5c7.4,3.2,15.4,4.8,23.5,4.9
			c8.1,0.1,16.2-1.4,23.7-4.4s14.4-7.5,20.2-13.2c5.8-5.7,10.5-12.6,13.6-20.1C1256-24,1257.6-32.1,1257.7-40.3z"/>
	</g>
	<rect x="1169.9" y="-74.6" class="st3" width="49.5" height="70.8"/>
	
		<text transform="matrix(1 0 0 1 1178.776 -10.6021)" style="display:inline;fill:#FFFFFF; font-family:'SilverSouthSerif'; font-size:80px;">t</text>
	
		<text transform="matrix(1 0 0 1 1178.776 -10.6021)" style="display:inline;fill:none;stroke:#FFFFFF;stroke-miterlimit:10; font-family:'SilverSouthSerif'; font-size:80px;">t</text>
	<g class="st2">
		<path d="M1231.9-40.3c0.1,9.6-3.8,19.1-10.6,25.9c-3.4,3.4-7.4,6.2-11.8,8.1c-4.4,1.9-9.2,2.9-14.1,3c-4.8,0.1-9.7-0.8-14.2-2.6
			c-4.5-1.8-8.7-4.5-12.2-7.9c-3.5-3.4-6.3-7.6-8.2-12.1c-1.9-4.5-2.9-9.4-2.9-14.3c0-4.9,1-9.8,2.9-14.3c1.9-4.5,4.7-8.7,8.2-12.1
			c7-6.9,16.7-10.7,26.4-10.6c4.8,0.1,9.7,1.1,14.1,3c4.4,1.9,8.5,4.7,11.8,8.1C1228-59.4,1231.9-49.9,1231.9-40.3z M1231.9-40.3
			c0-4.8-1-9.6-2.8-14c-1.8-4.4-4.6-8.4-8-11.8c-6.8-6.7-16.3-10.4-25.7-10.3c-4.7,0.1-9.4,1.1-13.7,2.9c-4.3,1.8-8.2,4.6-11.5,7.9
			c-6.6,6.7-10.3,15.9-10.3,25.2c0,9.3,3.7,18.6,10.3,25.2c3.3,3.3,7.2,6,11.5,7.9c4.3,1.9,9,2.8,13.7,2.9
			c9.4,0.1,18.9-3.6,25.7-10.3c3.4-3.4,6.1-7.4,8-11.8C1230.9-30.7,1231.8-35.5,1231.9-40.3z"/>
	</g>
	<g class="st2">
		<path d="M1239.4-40.3c0,5.8-1.1,11.5-3.3,16.9c-2.2,5.4-5.4,10.2-9.5,14.4c-4.1,4.1-8.9,7.5-14.3,9.7c-5.3,2.3-11.1,3.5-17,3.6
			c-5.8,0.1-11.7-1-17.1-3.2c-5.4-2.2-10.4-5.4-14.6-9.6c-4.2-4.1-7.5-9.1-9.8-14.5s-3.5-11.3-3.5-17.2c0-5.9,1.2-11.8,3.5-17.2
			c2.3-5.4,5.6-10.4,9.8-14.5c4.2-4.1,9.2-7.4,14.6-9.6s11.3-3.3,17.1-3.2c5.8,0.1,11.6,1.3,17,3.6c5.3,2.3,10.2,5.6,14.3,9.7
			c4.1,4.1,7.3,9,9.5,14.4C1238.3-51.8,1239.4-46,1239.4-40.3z M1239.4-40.3c0-5.8-1.2-11.5-3.4-16.8c-2.2-5.3-5.5-10.2-9.6-14.2
			c-4.1-4-9-7.2-14.3-9.4s-11-3.2-16.7-3.1c-5.7,0.1-11.4,1.3-16.6,3.5c-5.2,2.2-10,5.5-13.9,9.5c-4,4-7.2,8.8-9.3,14
			c-2.1,5.2-3.2,10.9-3.2,16.5c0,5.6,1.1,11.3,3.2,16.5c2.1,5.2,5.3,10,9.3,14c4,4,8.7,7.3,13.9,9.5c5.2,2.2,10.9,3.4,16.6,3.5
			c5.7,0.1,11.4-1,16.7-3.1c5.3-2.1,10.2-5.3,14.3-9.4c4.1-4.1,7.4-8.9,9.6-14.2C1238.2-28.8,1239.4-34.5,1239.4-40.3z"/>
	</g>
	<g class="st2">
		<path d="M1247.5-40.3c0,6.8-1.3,13.7-3.9,20c-2.6,6.3-6.4,12.1-11.3,17c-4.8,4.9-10.6,8.8-16.9,11.5c-6.3,2.7-13.2,4.1-20.1,4.2
			c-6.9,0.1-13.8-1.2-20.2-3.8c-6.4-2.6-12.3-6.4-17.3-11.3c-4.9-4.9-8.9-10.8-11.6-17.2c-2.7-6.4-4.1-13.4-4.1-20.3
			c0-7,1.4-13.9,4.1-20.3c2.7-6.4,6.6-12.3,11.6-17.2c4.9-4.9,10.9-8.8,17.3-11.3c6.4-2.6,13.3-3.9,20.2-3.8
			c6.9,0.1,13.8,1.5,20.1,4.2c6.3,2.7,12.1,6.6,16.9,11.5c4.8,4.9,8.7,10.7,11.3,17C1246.2-53.9,1247.6-47.1,1247.5-40.3z
			 M1247.5-40.3c0-6.8-1.4-13.7-4-20c-2.6-6.3-6.5-12.1-11.3-16.9c-4.8-4.8-10.7-8.6-16.9-11.1c-6.3-2.6-13.1-3.8-19.9-3.8
			c-6.8,0.1-13.5,1.5-19.7,4.1c-6.2,2.6-11.9,6.5-16.6,11.3c-4.7,4.8-8.5,10.5-11.1,16.7c-2.6,6.2-3.8,12.9-3.8,19.6
			c0,6.7,1.3,13.4,3.8,19.6c2.5,6.2,6.3,11.9,11.1,16.7c4.7,4.8,10.4,8.7,16.6,11.3c6.2,2.6,12.9,4,19.7,4.1
			c6.8,0.1,13.6-1.2,19.9-3.8c6.3-2.5,12.1-6.3,16.9-11.1c4.8-4.8,8.7-10.6,11.3-16.9C1246.1-26.6,1247.5-33.4,1247.5-40.3z"/>
	</g>
	<g class="st2">
		<path d="M1257.7-40.3c0,8.2-1.6,16.3-4.7,23.9c-3.1,7.6-7.7,14.5-13.5,20.3c-5.8,5.8-12.6,10.5-20.2,13.7
			c-7.6,3.2-15.8,4.9-24,4.9c-8.2,0.1-16.5-1.5-24.1-4.6s-14.7-7.7-20.6-13.5c-5.9-5.8-10.6-12.8-13.8-20.5
			c-3.2-7.6-4.8-15.9-4.9-24.2c0-8.3,1.7-16.6,4.9-24.2c3.2-7.6,7.9-14.6,13.8-20.5s12.9-10.4,20.6-13.6s15.9-4.7,24.1-4.6
			s16.4,1.7,24,4.9c7.6,3.2,14.4,7.9,20.2,13.7c5.8,5.8,10.4,12.7,13.5,20.3C1256.1-56.6,1257.7-48.4,1257.7-40.3z M1257.7-40.3
			c0-8.2-1.7-16.3-4.8-23.8c-3.1-7.5-7.8-14.4-13.6-20.1c-5.8-5.7-12.7-10.3-20.2-13.3s-15.6-4.6-23.7-4.5
			c-8.1,0.1-16.2,1.7-23.6,4.9c-7.4,3.1-14.2,7.8-19.9,13.5c-5.7,5.7-10.2,12.5-13.3,20c-3.1,7.4-4.6,15.5-4.6,23.5
			c0,8,1.5,16.1,4.6,23.5c3.1,7.4,7.6,14.3,13.3,20s12.4,10.4,19.9,13.5c7.4,3.1,15.5,4.8,23.6,4.9c8.1,0.1,16.2-1.5,23.7-4.5
			c7.5-3.1,14.5-7.6,20.2-13.3s10.4-12.6,13.6-20.1C1256-24,1257.6-32.1,1257.7-40.3z"/>
	</g>
	<g class="st2">
		<path d="M1231.9-40.3c0.1,9.6-3.8,19.1-10.6,25.9c-3.4,3.4-7.4,6.2-11.8,8.1c-4.4,1.9-9.2,2.9-14.1,3c-4.8,0.1-9.7-0.8-14.2-2.6
			c-4.5-1.8-8.7-4.5-12.2-7.9c-3.5-3.4-6.3-7.6-8.2-12.1c-1.9-4.5-2.9-9.4-2.9-14.3c0-4.9,1-9.8,2.9-14.3c1.9-4.5,4.7-8.7,8.2-12.1
			c7-6.9,16.7-10.7,26.4-10.6c4.8,0.1,9.7,1.1,14.1,3c4.4,1.9,8.5,4.7,11.8,8.1C1228-59.4,1231.9-49.9,1231.9-40.3z M1231.9-40.3
			c0-4.8-1-9.6-2.8-14c-1.8-4.4-4.6-8.4-8-11.8c-6.8-6.7-16.3-10.4-25.7-10.3c-4.7,0.1-9.4,1.1-13.7,2.9c-4.3,1.8-8.2,4.6-11.5,7.9
			c-6.6,6.7-10.3,15.9-10.3,25.2c0,9.3,3.7,18.6,10.3,25.2c3.3,3.3,7.2,6,11.5,7.9c4.3,1.9,9,2.8,13.7,2.9
			c9.4,0.1,18.9-3.6,25.7-10.3c3.4-3.4,6.1-7.4,8-11.8C1230.9-30.7,1231.8-35.5,1231.9-40.3z"/>
	</g>
	<g class="st2">
		<path d="M1239.4-40.3c0,5.8-1.1,11.5-3.3,16.9c-2.2,5.4-5.4,10.2-9.5,14.4c-4.1,4.1-8.9,7.5-14.3,9.7c-5.3,2.3-11.1,3.5-17,3.6
			c-5.8,0.1-11.7-1-17.1-3.2c-5.4-2.2-10.4-5.4-14.6-9.6c-4.2-4.1-7.5-9.1-9.8-14.5s-3.5-11.3-3.5-17.2c0-5.9,1.2-11.8,3.5-17.2
			c2.3-5.4,5.6-10.4,9.8-14.5c4.2-4.1,9.2-7.4,14.6-9.6s11.3-3.3,17.1-3.2c5.8,0.1,11.6,1.3,17,3.6c5.3,2.3,10.2,5.6,14.3,9.7
			c4.1,4.1,7.3,9,9.5,14.4C1238.3-51.8,1239.4-46,1239.4-40.3z M1239.4-40.3c0-5.8-1.2-11.5-3.4-16.8c-2.2-5.3-5.5-10.2-9.6-14.2
			c-4.1-4-9-7.2-14.3-9.4s-11-3.2-16.7-3.1c-5.7,0.1-11.4,1.3-16.6,3.5c-5.2,2.2-10,5.5-13.9,9.5c-4,4-7.2,8.8-9.3,14
			c-2.1,5.2-3.2,10.9-3.2,16.5c0,5.6,1.1,11.3,3.2,16.5c2.1,5.2,5.3,10,9.3,14c4,4,8.7,7.3,13.9,9.5c5.2,2.2,10.9,3.4,16.6,3.5
			c5.7,0.1,11.4-1,16.7-3.1c5.3-2.1,10.2-5.3,14.3-9.4c4.1-4.1,7.4-8.9,9.6-14.2C1238.2-28.8,1239.4-34.5,1239.4-40.3z"/>
	</g>
	<g class="st2">
		<path d="M1247.5-40.3c0,6.8-1.3,13.7-3.9,20c-2.6,6.3-6.4,12.1-11.3,17c-4.8,4.9-10.6,8.8-16.9,11.5c-6.3,2.7-13.2,4.1-20.1,4.2
			c-6.9,0.1-13.8-1.2-20.2-3.8c-6.4-2.6-12.3-6.4-17.3-11.3c-4.9-4.9-8.9-10.8-11.6-17.2c-2.7-6.4-4.1-13.4-4.1-20.3
			c0-7,1.4-13.9,4.1-20.3c2.7-6.4,6.6-12.3,11.6-17.2c4.9-4.9,10.9-8.8,17.3-11.3c6.4-2.6,13.3-3.9,20.2-3.8
			c6.9,0.1,13.8,1.5,20.1,4.2c6.3,2.7,12.1,6.6,16.9,11.5c4.8,4.9,8.7,10.7,11.3,17C1246.2-53.9,1247.6-47.1,1247.5-40.3z
			 M1247.5-40.3c0-6.8-1.4-13.7-4-20c-2.6-6.3-6.5-12.1-11.3-16.9c-4.8-4.8-10.7-8.6-16.9-11.1c-6.3-2.6-13.1-3.8-19.9-3.8
			c-6.8,0.1-13.5,1.5-19.7,4.1c-6.2,2.6-11.9,6.5-16.6,11.3c-4.7,4.8-8.5,10.5-11.1,16.7c-2.6,6.2-3.8,12.9-3.8,19.6
			c0,6.7,1.3,13.4,3.8,19.6c2.5,6.2,6.3,11.9,11.1,16.7c4.7,4.8,10.4,8.7,16.6,11.3c6.2,2.6,12.9,4,19.7,4.1
			c6.8,0.1,13.6-1.2,19.9-3.8c6.3-2.5,12.1-6.3,16.9-11.1c4.8-4.8,8.7-10.6,11.3-16.9C1246.1-26.6,1247.5-33.4,1247.5-40.3z"/>
	</g>
	<g class="st2">
		<path d="M1257.7-40.3c0,8.2-1.6,16.3-4.7,23.9c-3.1,7.6-7.7,14.5-13.5,20.3c-5.8,5.8-12.6,10.5-20.2,13.7
			c-7.6,3.2-15.8,4.9-24,4.9c-8.2,0.1-16.5-1.5-24.1-4.6s-14.7-7.7-20.6-13.5c-5.9-5.8-10.6-12.8-13.8-20.5
			c-3.2-7.6-4.8-15.9-4.9-24.2c0-8.3,1.7-16.6,4.9-24.2c3.2-7.6,7.9-14.6,13.8-20.5s12.9-10.4,20.6-13.6s15.9-4.7,24.1-4.6
			s16.4,1.7,24,4.9c7.6,3.2,14.4,7.9,20.2,13.7c5.8,5.8,10.4,12.7,13.5,20.3C1256.1-56.6,1257.7-48.4,1257.7-40.3z M1257.7-40.3
			c0-8.2-1.7-16.3-4.8-23.8c-3.1-7.5-7.8-14.4-13.6-20.1c-5.8-5.7-12.7-10.3-20.2-13.3s-15.6-4.6-23.7-4.5
			c-8.1,0.1-16.2,1.7-23.6,4.9c-7.4,3.1-14.2,7.8-19.9,13.5c-5.7,5.7-10.2,12.5-13.3,20c-3.1,7.4-4.6,15.5-4.6,23.5
			c0,8,1.5,16.1,4.6,23.5c3.1,7.4,7.6,14.3,13.3,20s12.4,10.4,19.9,13.5c7.4,3.1,15.5,4.8,23.6,4.9c8.1,0.1,16.2-1.5,23.7-4.5
			c7.5-3.1,14.5-7.6,20.2-13.3s10.4-12.6,13.6-20.1C1256-24,1257.6-32.1,1257.7-40.3z"/>
	</g>
	<circle class="st2" cx="1342.9" cy="-40.3" r="18.3"/>
	<g class="st2">
		<path d="M1364.8-40.3c0,5.7-1.9,11.6-5.8,16.1c-2,2.2-4.4,4.1-7.2,5.3c-2.8,1.2-5.8,1.8-8.8,1.7c-3-0.1-6-0.9-8.7-2.1
			s-5.1-3-7.1-5.1c-4.1-4.2-6.6-9.8-6.9-15.7c-0.1-2.9,0.3-6,1.4-8.8c1.1-2.8,2.7-5.4,4.8-7.6c2.1-2.2,4.7-4,7.5-5.2
			c2.8-1.2,5.9-1.8,8.9-1.8c3.1,0.1,6.1,0.7,8.9,1.9c2.8,1.2,5.2,3.1,7.2,5.4C1363-51.8,1364.9-46,1364.8-40.3z M1364.5-40.3
			c0-2.8-0.7-5.7-1.9-8.2c-1.2-2.5-3-4.7-5-6.5c-4.2-3.5-9.4-5.5-14.7-5.5c-5.3,0-10.5,2.1-14.4,5.8c-3.8,3.7-6.3,8.9-6.6,14.4
			c-0.1,2.7,0.3,5.5,1.3,8.1c1,2.6,2.6,5,4.6,6.9c2,1.9,4.4,3.4,7,4.3c2.6,0.9,5.3,1.3,8,1.2c2.7-0.1,5.3-0.6,7.8-1.6
			c2.5-1,4.8-2.4,6.9-4.2c2.1-1.8,3.8-4,5-6.5C1363.9-34.6,1364.6-37.4,1364.5-40.3z"/>
	</g>
	<circle class="st2" cx="1342.9" cy="-40.3" r="21.8"/>
	<circle class="st2" cx="1342.9" cy="-40.3" r="25.8"/>
	<circle class="st2" cx="1342.8" cy="-40" r="31.6"/>
	<g class="st2">
		<path d="M1379.6-40.3c0,9.6-3.5,19.3-10.2,26.5c-3.3,3.6-7.4,6.6-12,8.5c-4.6,2-9.5,2.9-14.5,2.8c-4.9-0.1-9.8-1.2-14.3-3.3
			c-4.5-2-8.5-4.9-11.9-8.3c-6.8-6.9-10.9-16.4-11.2-26.2c-0.1-4.9,0.7-9.8,2.5-14.4c1.8-4.6,4.5-8.8,8-12.4
			c3.5-3.5,7.7-6.4,12.2-8.4c4.6-2,9.6-2.9,14.6-2.9c5,0.1,10,1,14.5,3.1c4.6,2,8.7,4.9,12,8.6C1376.1-59.5,1379.6-49.9,1379.6-40.3
			z M1379.3-40.3c0-4.8-1-9.5-3-13.8c-1.9-4.3-4.8-8.2-8.2-11.3c-6.9-6.3-15.9-9.9-25.1-9.8c-9.2,0-18.2,3.6-24.8,10.1
			c-3.3,3.2-6,7.1-7.8,11.3c-1.8,4.2-2.9,8.8-3.1,13.5c-0.1,4.7,0.7,9.4,2.4,13.8c1.7,4.4,4.4,8.4,7.8,11.7
			c6.8,6.6,16.3,10.1,25.5,9.8c9.2-0.2,18.3-3.8,25.2-10.1c3.4-3.2,6.3-7,8.2-11.3c0.4-1.1,0.9-2.2,1.3-3.3c0.3-1.1,0.7-2.3,0.9-3.4
			c0.2-1.2,0.4-2.3,0.6-3.5L1379.3-40.3z"/>
	</g>
	<g class="st2">
		<path d="M1387.1-40.3c0,5.8-1.1,11.6-3.1,17c-2.1,5.4-5.2,10.5-9.2,14.8c-4,4.3-9,7.8-14.4,10.1c-5.5,2.3-11.4,3.5-17.4,3.4
			c-5.9-0.1-11.8-1.4-17.2-3.8c-5.4-2.4-10.2-5.8-14.3-10c-8.2-8.3-13.1-19.7-13.4-31.5c-0.1-5.9,0.9-11.8,3.1-17.3
			c2.2-5.5,5.5-10.6,9.7-14.8c4.2-4.2,9.2-7.7,14.7-10c5.5-2.3,11.5-3.5,17.4-3.5c6,0.1,11.9,1.2,17.4,3.6
			c5.5,2.3,10.4,5.9,14.4,10.2c4,4.3,7.2,9.4,9.2,14.8C1386.1-51.8,1387.1-46.1,1387.1-40.3z M1386.8-40.3c0-5.8-1.2-11.5-3.6-16.7
			c-2.3-5.2-5.7-9.9-9.9-13.8c-8.3-7.7-19.3-12.1-30.4-12c-11.1,0-22.2,4.4-30.2,12.3c-4,3.9-7.2,8.6-9.4,13.8
			c-2.2,5.2-3.5,10.7-3.6,16.4c-0.1,5.6,0.8,11.4,3,16.7c2.1,5.3,5.4,10.1,9.4,14.1c8.2,8.1,19.6,12.3,30.8,12
			c11.2-0.2,22.2-4.6,30.5-12.3c4.1-3.9,7.5-8.6,9.8-13.8C1385.6-28.8,1386.8-34.5,1386.8-40.3z"/>
	</g>
	<g class="st2">
		<path d="M1395.3-40.3c0,6.9-1.3,13.7-3.8,20.1s-6.2,12.4-11,17.4s-10.6,9.2-17.1,11.9c-6.4,2.8-13.5,4.1-20.5,4
			c-7-0.1-13.9-1.7-20.3-4.4c-6.4-2.8-12.1-6.8-17-11.7c-9.7-9.8-15.5-23.3-15.8-37.3c-0.1-6.9,1.1-13.9,3.7-20.4
			c2.6-6.5,6.5-12.5,11.4-17.5c4.9-5,10.8-9,17.3-11.8c6.5-2.8,13.5-4.1,20.6-4.1c7,0.1,14.1,1.4,20.5,4.2
			c6.5,2.8,12.3,6.9,17.1,11.9c4.8,5.1,8.5,11,11,17.5C1394-54,1395.3-47.1,1395.3-40.3z M1395-40.3c0-6.8-1.4-13.6-4.2-19.8
			c-2.8-6.2-6.7-11.8-11.6-16.4c-9.8-9.2-22.9-14.5-36.2-14.4c-13.3,0-26.4,5.3-35.9,14.7c-4.7,4.7-8.6,10.3-11.2,16.4
			c-2.6,6.1-4.1,12.8-4.2,19.5c-0.1,6.7,1.1,13.5,3.6,19.8c2.5,6.3,6.4,12,11.2,16.8c9.7,9.6,23.2,14.7,36.6,14.4
			c6.7-0.1,13.3-1.4,19.5-3.9c6.2-2.5,11.9-6.1,16.8-10.8c4.9-4.6,8.9-10.2,11.6-16.4C1393.6-26.6,1394.9-33.5,1395-40.3z"/>
	</g>
	<g class="st2">
		<path d="M1405.4-40.3c0,8.2-1.6,16.3-4.5,24c-3,7.6-7.5,14.7-13.2,20.7c-5.7,6-12.7,10.9-20.4,14.1c-7.7,3.3-16,4.9-24.4,4.8
			c-8.3-0.1-16.6-1.9-24.2-5.2c-7.6-3.3-14.5-8.1-20.2-13.9c-5.8-5.9-10.5-12.8-13.7-20.4c-3.2-7.6-5-15.8-5.1-24.1
			c-0.1-8.3,1.3-16.6,4.5-24.3c3.1-7.7,7.7-14.8,13.6-20.8c5.9-5.9,12.9-10.7,20.6-14c7.7-3.3,16.1-4.9,24.4-4.9
			c8.4,0.1,16.7,1.7,24.4,5c7.7,3.3,14.7,8.2,20.4,14.2c5.7,6,10.2,13.1,13.2,20.8C1403.9-56.6,1405.4-48.5,1405.4-40.3z
			 M1405.1-40.3c0-8.1-1.7-16.3-5-23.7c-3.3-7.4-8-14.1-13.8-19.7c-11.6-11.1-27.4-17.5-43.4-17.3c-8,0-15.9,1.6-23.2,4.6
			c-7.4,3-14.1,7.5-19.8,13.1c-5.7,5.6-10.3,12.3-13.4,19.7c-3.1,7.4-4.9,15.3-5,23.4c-0.1,8,1.3,16.2,4.4,23.6
			c3.1,7.5,7.6,14.4,13.4,20.1c2.9,2.8,6.1,5.4,9.4,7.6c3.4,2.2,7,4,10.8,5.5c7.5,3,15.5,4.4,23.5,4.3c8-0.1,15.9-1.7,23.3-4.7
			c7.4-3,14.2-7.4,20.1-13c5.8-5.6,10.6-12.3,13.8-19.7C1403.4-24,1405.1-32.1,1405.1-40.3z"/>
	</g>
	<rect x="1317.5" y="-74.6" class="st3" width="49.5" height="70.8"/>
	
		<text transform="matrix(1 0 0 1 1326.3502 -10.6021)" style="display:inline;fill:#FFFFFF; font-family:'SilverSouthSerif'; font-size:80px;">t</text>
	
		<text transform="matrix(1 0 0 1 1326.3502 -10.6021)" style="display:inline;fill:none;stroke:#FFFFFF;stroke-miterlimit:10; font-family:'SilverSouthSerif'; font-size:80px;">t</text>
	<g class="st2">
		<path d="M1379.5-40.3c0,9.6-3.6,19.2-10.3,26.3c-3.3,3.5-7.4,6.4-12,8.3c-4.5,1.9-9.4,2.9-14.3,2.8c-4.9-0.1-9.7-1.1-14.2-3.1
			c-4.4-1.9-8.5-4.8-11.9-8.2c-3.4-3.4-6.1-7.5-8-11.9c-1.8-4.4-2.9-9.2-3-14.1c-0.1-4.8,0.8-9.8,2.6-14.3c1.8-4.5,4.5-8.7,8-12.2
			s7.6-6.3,12.1-8.2c4.5-1.9,9.5-2.9,14.4-2.9c4.9,0,9.8,1,14.3,3c4.5,1.9,8.6,4.8,11.9,8.3C1375.9-59.5,1379.6-49.9,1379.5-40.3z
			 M1379.3-40.3c0-4.8-1-9.5-2.9-13.9c-1.9-4.3-4.7-8.3-8.1-11.5c-6.8-6.4-16.1-10.2-25.4-10.1c-9.3,0-18.5,3.7-25.2,10.3
			c-3.3,3.3-6,7.2-7.8,11.5c-1.8,4.3-2.9,9-3,13.7c-0.2,9.4,3.6,18.9,10.4,25.6c6.8,6.7,16.3,10.3,25.6,10.1
			c9.4-0.1,18.5-3.8,25.4-10.3c3.4-3.2,6.2-7.2,8.1-11.5C1378.3-30.7,1379.3-35.5,1379.3-40.3z"/>
	</g>
	<g class="st2">
		<path d="M1387.1-40.3c0,5.8-1.1,11.5-3.2,17c-2.1,5.4-5.3,10.4-9.3,14.6c-4,4.2-9,7.6-14.4,9.9c-5.4,2.3-11.3,3.4-17.2,3.4
			c-5.9-0.1-11.7-1.3-17.1-3.7c-1.3-0.6-2.6-1.3-3.9-1.9c-1.3-0.7-2.5-1.5-3.7-2.3l-3.5-2.6l-3.2-2.9c-4.1-4.2-7.4-9-9.6-14.4
			c-2.2-5.4-3.5-11.1-3.6-17c-0.1-5.8,1-11.7,3.2-17.2c2.2-5.4,5.5-10.5,9.6-14.7c4.1-4.2,9.1-7.6,14.6-9.8
			c5.4-2.3,11.4-3.4,17.2-3.4c5.9,0,11.8,1.2,17.2,3.5c5.4,2.3,10.4,5.7,14.4,10c4,4.2,7.2,9.2,9.3,14.7
			C1386-51.8,1387.1-46.1,1387.1-40.3z M1386.9-40.3c0-5.8-1.2-11.5-3.5-16.8c-2.3-5.2-5.6-10-9.8-13.9
			c-8.2-7.9-19.4-12.4-30.7-12.3c-11.3,0-22.4,4.6-30.5,12.5c-4,4-7.3,8.7-9.5,13.9c-2.2,5.2-3.4,10.8-3.5,16.5
			c-0.2,11.4,4.4,22.9,12.6,30.9c8.1,8.1,19.6,12.5,30.9,12.3c11.3-0.1,22.5-4.7,30.7-12.5c4.1-3.9,7.4-8.7,9.8-13.9
			C1385.7-28.8,1386.8-34.5,1386.9-40.3z"/>
	</g>
	<g class="st2">
		<path d="M1395.2-40.3c0,6.8-1.3,13.7-3.8,20.1c-2.5,6.4-6.3,12.3-11.1,17.3c-4.8,5-10.6,9-17,11.7c-6.4,2.7-13.4,4-20.3,4
			c-6.9-0.1-13.8-1.6-20.2-4.3c-1.6-0.7-3.1-1.5-4.7-2.3c-1.5-0.9-2.9-1.8-4.4-2.7c-1.4-1-2.8-2.1-4.1-3.1l-3.8-3.5
			c-4.8-4.9-8.7-10.7-11.4-17.1c-2.6-6.4-4.1-13.2-4.2-20.1c-0.1-6.9,1.2-13.8,3.8-20.3c2.6-6.4,6.5-12.4,11.4-17.3
			s10.8-8.9,17.2-11.6c6.4-2.7,13.4-4,20.4-4.1c7,0,13.9,1.4,20.3,4.1c6.4,2.7,12.2,6.7,17,11.7c4.8,5,8.6,10.9,11.1,17.3
			C1393.9-54,1395.2-47.1,1395.2-40.3z M1395-40.3c0-6.8-1.4-13.6-4.1-19.9c-2.7-6.2-6.7-11.9-11.5-16.6c-9.7-9.4-23-14.8-36.4-14.7
			c-13.4,0-26.7,5.4-36.2,14.9c-4.8,4.7-8.6,10.4-11.2,16.6c-2.6,6.2-4.1,12.9-4.2,19.7c-0.1,6.8,1.2,13.6,3.8,19.8
			c2.6,6.3,6.4,12.1,11.2,16.8c9.6,9.6,23.2,14.9,36.7,14.7c13.5-0.1,26.7-5.5,36.5-14.9c4.9-4.7,8.8-10.4,11.5-16.6
			C1393.6-26.6,1395-33.5,1395-40.3z"/>
	</g>
	<g class="st2">
		<path d="M1405.3-40.3c0.1,16.3-6.4,32.7-17.9,44.5c-5.7,5.9-12.7,10.6-20.3,13.9c-7.6,3.2-15.9,4.8-24.2,4.8
			c-8.3-0.1-16.5-1.8-24.1-5.1c-3.8-1.6-7.4-3.6-10.8-5.9c-3.4-2.3-6.6-4.9-9.5-7.9c-5.8-5.8-10.4-12.8-13.6-20.3
			c-3.2-7.6-4.9-15.8-5-24c-0.1-8.2,1.4-16.5,4.6-24.2c3.1-7.7,7.7-14.7,13.6-20.6c5.8-5.9,12.8-10.6,20.5-13.8
			c7.7-3.2,16-4.8,24.2-4.8c8.3,0,16.6,1.6,24.2,4.9c7.6,3.2,14.6,8,20.3,13.9C1399-73,1405.5-56.6,1405.3-40.3z M1405.1-40.3
			c-0.1-8.1-1.7-16.3-4.9-23.7s-7.9-14.2-13.7-19.9c-5.8-5.6-12.7-10.1-20.1-13.1s-15.4-4.6-23.5-4.6c-16.1,0-32,6.5-43.4,17.9
			c-5.7,5.7-10.3,12.4-13.4,19.8c-3.1,7.4-4.8,15.4-4.9,23.5c-0.1,8.1,1.4,16.2,4.5,23.7c3.1,7.5,7.7,14.4,13.4,20.1
			c2.9,2.9,6,5.4,9.4,7.6c3.4,2.2,7,4.1,10.8,5.6c7.5,3,15.6,4.5,23.6,4.4c4,0,8.1-0.4,12-1.2c3.9-0.8,7.8-2,11.5-3.5
			c7.5-3,14.3-7.6,20.1-13.2c5.8-5.6,10.5-12.4,13.7-19.9C1403.5-24,1405.1-32.1,1405.1-40.3z"/>
	</g>
	<g class="st2">
		<path d="M1379.5-40.3c0,9.6-3.6,19.2-10.3,26.3c-3.3,3.5-7.4,6.4-12,8.3c-4.5,1.9-9.4,2.9-14.3,2.8c-4.9-0.1-9.7-1.1-14.2-3.1
			c-4.4-1.9-8.5-4.8-11.9-8.2c-3.4-3.4-6.1-7.5-8-11.9c-1.8-4.4-2.9-9.2-3-14.1c-0.1-4.8,0.8-9.8,2.6-14.3c1.8-4.5,4.5-8.7,8-12.2
			s7.6-6.3,12.1-8.2c4.5-1.9,9.5-2.9,14.4-2.9c4.9,0,9.8,1,14.3,3c4.5,1.9,8.6,4.8,11.9,8.3C1375.9-59.5,1379.6-49.9,1379.5-40.3z
			 M1379.3-40.3c0-4.8-1-9.5-2.9-13.9c-1.9-4.3-4.7-8.3-8.1-11.5c-6.8-6.4-16.1-10.2-25.4-10.1c-9.3,0-18.5,3.7-25.2,10.3
			c-3.3,3.3-6,7.2-7.8,11.5c-1.8,4.3-2.9,9-3,13.7c-0.2,9.4,3.6,18.9,10.4,25.6c6.8,6.7,16.3,10.3,25.6,10.1
			c9.4-0.1,18.5-3.8,25.4-10.3c3.4-3.2,6.2-7.2,8.1-11.5C1378.3-30.7,1379.3-35.5,1379.3-40.3z"/>
	</g>
	<g class="st2">
		<path d="M1387.1-40.3c0,5.8-1.1,11.5-3.2,17c-2.1,5.4-5.3,10.4-9.3,14.6c-4,4.2-9,7.6-14.4,9.9c-5.4,2.3-11.3,3.4-17.2,3.4
			c-5.9-0.1-11.7-1.3-17.1-3.7c-1.3-0.6-2.6-1.3-3.9-1.9c-1.3-0.7-2.5-1.5-3.7-2.3l-3.5-2.6l-3.2-2.9c-4.1-4.2-7.4-9-9.6-14.4
			c-2.2-5.4-3.5-11.1-3.6-17c-0.1-5.8,1-11.7,3.2-17.2c2.2-5.4,5.5-10.5,9.6-14.7c4.1-4.2,9.1-7.6,14.6-9.8
			c5.4-2.3,11.4-3.4,17.2-3.4c5.9,0,11.8,1.2,17.2,3.5c5.4,2.3,10.4,5.7,14.4,10c4,4.2,7.2,9.2,9.3,14.7
			C1386-51.8,1387.1-46.1,1387.1-40.3z M1386.9-40.3c0-5.8-1.2-11.5-3.5-16.8c-2.3-5.2-5.6-10-9.8-13.9
			c-8.2-7.9-19.4-12.4-30.7-12.3c-11.3,0-22.4,4.6-30.5,12.5c-4,4-7.3,8.7-9.5,13.9c-2.2,5.2-3.4,10.8-3.5,16.5
			c-0.2,11.4,4.4,22.9,12.6,30.9c8.1,8.1,19.6,12.5,30.9,12.3c11.3-0.1,22.5-4.7,30.7-12.5c4.1-3.9,7.4-8.7,9.8-13.9
			C1385.7-28.8,1386.8-34.5,1386.9-40.3z"/>
	</g>
	<g class="st2">
		<path d="M1395.2-40.3c0,6.8-1.3,13.7-3.8,20.1c-2.5,6.4-6.3,12.3-11.1,17.3c-4.8,5-10.6,9-17,11.7c-6.4,2.7-13.4,4-20.3,4
			c-6.9-0.1-13.8-1.6-20.2-4.3c-1.6-0.7-3.1-1.5-4.7-2.3c-1.5-0.9-2.9-1.8-4.4-2.7c-1.4-1-2.8-2.1-4.1-3.1l-3.8-3.5
			c-4.8-4.9-8.7-10.7-11.4-17.1c-2.6-6.4-4.1-13.2-4.2-20.1c-0.1-6.9,1.2-13.8,3.8-20.3c2.6-6.4,6.5-12.4,11.4-17.3
			s10.8-8.9,17.2-11.6c6.4-2.7,13.4-4,20.4-4.1c7,0,13.9,1.4,20.3,4.1c6.4,2.7,12.2,6.7,17,11.7c4.8,5,8.6,10.9,11.1,17.3
			C1393.9-54,1395.2-47.1,1395.2-40.3z M1395-40.3c0-6.8-1.4-13.6-4.1-19.9c-2.7-6.2-6.7-11.9-11.5-16.6c-9.7-9.4-23-14.8-36.4-14.7
			c-13.4,0-26.7,5.4-36.2,14.9c-4.8,4.7-8.6,10.4-11.2,16.6c-2.6,6.2-4.1,12.9-4.2,19.7c-0.1,6.8,1.2,13.6,3.8,19.8
			c2.6,6.3,6.4,12.1,11.2,16.8c9.6,9.6,23.2,14.9,36.7,14.7c13.5-0.1,26.7-5.5,36.5-14.9c4.9-4.7,8.8-10.4,11.5-16.6
			C1393.6-26.6,1395-33.5,1395-40.3z"/>
	</g>
	<g class="st2">
		<path d="M1405.3-40.3c0.1,16.3-6.4,32.7-17.9,44.5c-5.7,5.9-12.7,10.6-20.3,13.9c-7.6,3.2-15.9,4.8-24.2,4.8
			c-8.3-0.1-16.5-1.8-24.1-5.1c-3.8-1.6-7.4-3.6-10.8-5.9c-3.4-2.3-6.6-4.9-9.5-7.9c-5.8-5.8-10.4-12.8-13.6-20.3
			c-3.2-7.6-4.9-15.8-5-24c-0.1-8.2,1.4-16.5,4.6-24.2c3.1-7.7,7.7-14.7,13.6-20.6c5.8-5.9,12.8-10.6,20.5-13.8
			c7.7-3.2,16-4.8,24.2-4.8c8.3,0,16.6,1.6,24.2,4.9c7.6,3.2,14.6,8,20.3,13.9C1399-73,1405.5-56.6,1405.3-40.3z M1405.1-40.3
			c-0.1-8.1-1.7-16.3-4.9-23.7s-7.9-14.2-13.7-19.9c-5.8-5.6-12.7-10.1-20.1-13.1s-15.4-4.6-23.5-4.6c-16.1,0-32,6.5-43.4,17.9
			c-5.7,5.7-10.3,12.4-13.4,19.8c-3.1,7.4-4.8,15.4-4.9,23.5c-0.1,8.1,1.4,16.2,4.5,23.7c3.1,7.5,7.7,14.4,13.4,20.1
			c2.9,2.9,6,5.4,9.4,7.6c3.4,2.2,7,4.1,10.8,5.6c7.5,3,15.6,4.5,23.6,4.4c4,0,8.1-0.4,12-1.2c3.9-0.8,7.8-2,11.5-3.5
			c7.5-3,14.3-7.6,20.1-13.2c5.8-5.6,10.5-12.4,13.7-19.9C1403.5-24,1405.1-32.1,1405.1-40.3z"/>
	</g>
</g>
</svg>
