<svg xmlns="http://www.w3.org/2000/svg" viewBox="0 0 841.89 472.34"><style/><path d="M255.12 249.86c0 3.73-1.24 7.12-3.5 9.61-7.68 8.36-27.23 5.31-27.23-9.38v-43.62H214.1v-.79h10.28v-14.8s7.12-.22 10.85-9.83h.68v24.64h13.67v.79h-13.67v43.62c0 10.06 7.23 16.61 15.14 8.93 2.26-2.26 3.28-5.65 3.28-9.15h.79zm52.66-36.39c4.86 5.42 7.46 12.88 7.46 21.02s-2.6 15.6-7.46 20.91c-2.49 2.71-5.42 4.86-8.81 6.33-3.5 1.58-7.46 2.37-11.75 2.37-4.18 0-8.14-.79-11.64-2.37-3.39-1.47-6.33-3.62-8.81-6.33-4.86-5.31-7.57-12.77-7.57-20.91s2.71-15.6 7.57-21.02c2.49-2.71 5.42-4.86 8.81-6.33 3.62-1.58 7.46-2.26 11.64-2.26 4.29 0 8.14.68 11.75 2.26 3.38 1.48 6.32 3.62 8.81 6.33zm-4.52 21.36c0-10.85-2.15-27.35-12.66-29.16-1.13-.11-2.15-.11-3.39-.11-1.02 0-2.03 0-3.05.11-10.62 1.7-12.77 18.19-12.77 29.16 0 9.61 1.47 28.59 15.14 28.59 15.6 0 16.73-15.93 16.73-28.59zm83.73 28.37h2.15v.79h-32.55v-.79h2.15c5.99-.11 8.36-.56 8.36-9.61v-24.86c0-8.47-.9-23.39-13.45-22.49-4.86.45-9.04 2.71-12.43 6.67-.68.79-1.36 1.7-2.03 2.71v39.78c.45 6.89 2.82 7.68 8.25 7.8h2.15v.68h-32.55v-.68h2.15c5.99-.11 8.25-1.02 8.48-9.61v-37.63c-.11-8.93-2.37-9.83-8.48-9.95h-2.15v-.68h22.15v8.93c.45-.56 1.02-1.24 1.47-1.81 4.07-4.75 9.15-7.01 15.14-7.01 6.1 0 11.87 2.37 16.16 6.67 4.29 4.18 6.67 9.83 6.78 15.71v26.11c0 8.59 2.83 9.27 8.25 9.27zm18.87.68h-10.85v-.79h2.15c5.99-.11 8.25-1.02 8.36-9.61v-37.63c-.11-8.93-2.37-9.83-8.36-9.94h-2.15v-.68h22.04v50.06c.45 7.01 2.83 7.69 8.36 7.8h2.15v.79h-21.7zm-7.23-67.13c15.6-16.72 16.16-17.29 16.5-17.52 2.15-1.58 5.2-1.13 6.78 1.02s1.13 5.2-1.02 6.67c-.34.34-.68.56-21.47 10.74l-.79-.91zm57.97 9.04c3.96 0 7.8.79 11.3 2.15 1.7.68 3.39 1.58 4.86 2.6v-4.75h22.04v.79h-2.15c-5.99.11-8.36 1.02-8.36 9.94v67.13c.11 8.7 2.49 9.49 8.36 9.61h2.15v.79h-32.55v-.79h2.15c5.54 0 7.91-.79 8.36-7.8V256.3c-.79 1.24-1.92 2.37-3.05 3.5-3.73 3.39-8.36 5.31-13.11 5.31-14.58 0-26.44-13.34-26.44-29.61-.01-16.37 11.86-29.71 26.44-29.71zm1.81 58.54c3.96-.34 7.68-2.15 10.85-4.97 1.36-1.36 2.6-2.82 3.5-4.41v-43.62a20.387 20.387 0 00-5.2-2.71c-2.37-1.02-4.86-1.58-7.57-1.92-16.27-1.58-17.18 16.38-17.18 30.17 0 16.38 5.43 28.14 15.6 27.46zm111.98-1.02h2.15v.68H550.4v-8.93c-.45.68-.9 1.36-1.47 1.92-4.07 4.63-9.04 7.01-15.03 7.01-6.1 0-11.98-2.37-16.27-6.67-4.18-4.29-6.67-9.72-6.67-15.71v-27.35c0-7.01-2.83-7.8-8.36-7.8h-2.15v-.79h22.04v35.03c0 8.36.9 23.39 13.45 22.49 4.86-.45 9.04-2.71 12.43-6.67.79-.79 1.47-1.7 2.03-2.71v-39.55c0-7.01-2.71-7.68-8.25-7.8H540v-.79h22.04v47.8c.1 8.94 2.36 9.73 8.35 9.84zm15.82-31.3v2.37c0 10.4 1.13 28.59 15.93 28.59h1.58c2.37 0 4.63-.57 6.89-1.47 2.37-.9 4.52-2.26 6.55-3.96 3.96-3.28 6.89-7.8 8.14-12.66l.68.23c-1.36 4.97-4.29 9.61-8.36 13a20.86 20.86 0 01-6.78 4.07c-2.49 1.02-5.2 1.58-7.8 1.58-3.17 0-5.99-.45-8.81-1.24-1.13-.34-2.26-.68-3.28-1.13-3.5-1.47-6.55-3.62-9.15-6.33-4.97-5.42-7.68-12.88-7.68-21.02 0-8.03 2.83-15.48 7.91-20.91 2.6-2.71 5.65-4.86 9.04-6.33 3.62-1.58 7.57-2.37 11.64-2.37 3.84 0 7.68.79 10.85 2.37a22.64 22.64 0 017.91 6.33c3.84 4.75 6.33 12.54 6.33 18.87h-41.59zm.11-.79h29.72c0-1.58-.11-3.62-.23-4.97-.9-10.06-3.84-20.12-11.87-21.02-2.37-.11-3.73-.11-5.99.34-8.81 2.25-11.29 15.36-11.63 25.65z" stroke="#474747" fill='#474747' stroke-width=".75" stroke-miterlimit="10" id="Ebene_1"/></svg>