<svg xmlns="http://www.w3.org/2000/svg" viewBox="0 0 435.5 148.3" stroke="#474747" fill="#474747" stroke-width=".75" stroke-miterlimit="10"><path d="M51.9 87.9c0 3.7-1.2 7.1-3.5 9.6-7.7 8.4-27.2 5.3-27.2-9.4V44.5H10.9v-.8h10.3V28.9s7.1-.2 10.9-9.8h.7v24.6h13.7v.8H32.7v43.6c0 10.1 7.2 16.6 15.1 8.9 2.3-2.3 3.3-5.6 3.3-9.1h.8zm52.7-36.4c4.9 5.4 7.5 12.9 7.5 21s-2.6 15.6-7.5 20.9c-2.5 2.7-5.4 4.9-8.8 6.3-3.5 1.6-7.5 2.4-11.8 2.4-4.2 0-8.1-.8-11.6-2.4-3.4-1.5-6.3-3.6-8.8-6.3-4.9-5.3-7.6-12.8-7.6-20.9s2.7-15.6 7.6-21c2.5-2.7 5.4-4.9 8.8-6.3 3.6-1.6 7.5-2.3 11.6-2.3 4.3 0 8.1.7 11.8 2.3 3.4 1.4 6.3 3.6 8.8 6.3zm-4.5 21.3c0-10.9-2.1-27.4-12.7-29.2-1.1-.1-2.1-.1-3.4-.1-1 0-2 0-3 .1-10.6 1.7-12.8 18.2-12.8 29.2 0 9.6 1.5 28.6 15.1 28.6 15.6 0 16.8-15.9 16.8-28.6zm83.7 28.4h2.1v.8h-32.4v-.8h2.1c6-.1 8.4-.6 8.4-9.6V66.7c0-8.5-.9-23.4-13.5-22.5-4.9.4-9 2.7-12.4 6.7-.7.8-1.4 1.7-2 2.7v39.8c.5 6.9 2.8 7.7 8.2 7.8h2.1v.6h-32.5v-.7h2.1c6-.1 8.2-1 8.5-9.6V54c-.1-8.9-2.4-9.8-8.5-9.9h-2.1v-.7H136v8.9l1.5-1.8c4.1-4.8 9.1-7 15.1-7a22.85 22.85 0 0 1 16.2 6.7c4.3 4.2 6.7 9.8 6.8 15.7 0 .1 0-1.2 0 26.1-.1 8.5 2.8 9.2 8.2 9.2zm18.9.7h-10.8v-.8h2.1c6-.1 8.2-1 8.4-9.6V53.9c-.1-8.9-2.4-9.8-8.4-9.9h-2.1v-.6h22v50.1c.5 7 2.8 7.7 8.4 7.8h2.1v.8h-21.7zm-7.3-67.1l16.5-17.6c2.1-1.6 5.2-1.1 6.8 1s1.1 5.2-1 6.7c-.3.3-.7.6-21.5 10.7l-.8-.8zm58 9c4 0 7.8.8 11.3 2.1 1.7.7 3.4 1.6 4.9 2.6v-4.8h22v.8h-2.1c-6 .1-8.4 1-8.4 9.9v67.1c.1 8.7 2.5 9.5 8.4 9.6h2.1v.8h-32.5v-.8h2.1c5.5 0 7.9-.8 8.4-7.8V94.1c-.8 1.2-1.9 2.4-3 3.5-3.7 3.4-8.4 5.3-13.1 5.3-14.6 0-26.4-13.3-26.4-29.6-.1-16.2 11.7-29.5 26.3-29.5zm1.8 58.5c4-.3 7.7-2.1 10.9-5 1.4-1.4 2.6-2.8 3.5-4.4V49.3a23.29 23.29 0 0 0-5.2-2.7c-2.4-1-4.9-1.6-7.6-1.9-16.3-1.6-17.2 16.4-17.2 30.2 0 16.4 5.4 28.1 15.6 27.4zm112-1h2.2v.7h-22.1v-8.9c-.5.7-.9 1.4-1.5 1.9-4.1 4.6-9 7-15 7-6.1 0-12-2.4-16.3-6.7-4.2-4.3-6.7-9.7-6.7-15.7V52.2c0-7-2.8-7.8-8.4-7.8h-2.1v-.7h22v35c0 8.4.9 23.4 13.5 22.5 4.9-.5 9-2.7 12.4-6.7.8-.8 1.5-1.7 2-2.7V52.2c0-7-2.7-7.7-8.2-7.8h-2.2v-.7h22v47.8c.1 8.9 2.4 9.7 8.4 9.8zM383 70v2.4c0 10.4 1.1 28.6 15.9 28.6h1.6c2.4 0 4.6-.6 6.9-1.5 2.4-.9 4.5-2.3 6.5-4 4-3.3 6.9-7.8 8.1-12.7l.7.2c-1.4 5-4.3 9.6-8.4 13-2 1.8-4.3 3.2-6.8 4.1-2.5 1-5.2 1.6-7.8 1.6-3.2 0-6-.5-8.8-1.2-1.1-.3-2.3-.7-3.3-1.1-3.5-1.5-6.5-3.6-9.2-6.3-5-5.4-7.7-12.9-7.7-21 0-8 2.8-15.5 7.9-20.9 2.6-2.7 5.7-4.9 9-6.3 3.6-1.6 7.6-2.4 11.6-2.4 3.8 0 7.7.8 10.8 2.4 3 1.5 5.8 3.6 7.9 6.3 3.8 4.8 6.3 12.5 6.3 18.9h-9.3L383 70zm.1-.8h29.7a77.3 77.3 0 0 0-.2-5c-.9-10.1-3.8-20.1-11.9-21-2.4-.1-3.7-.1-6 .3-8.8 2.3-11.2 15.4-11.6 25.7z"/></svg>