<?xml version="1.0" encoding="utf-8"?>
<!-- Generator: Adobe Illustrator 24.1.3, SVG Export Plug-In . SVG Version: 6.00 Build 0)  -->
<svg version="1.1" id="Ebene_1" xmlns="http://www.w3.org/2000/svg" xmlns:xlink="http://www.w3.org/1999/xlink" x="0px" y="0px"
	 viewBox="0 0 335.9 117.3" style="enable-background:new 0 0 335.9 117.3;" xml:space="preserve">
<style type="text/css">
	.st0{fill:#FFFFFF;}
	.st1{opacity:0.7;fill:url(#SVGID_1_);enable-background:new    ;}
	.st2{stroke:#000000;stroke-width:0.75;stroke-miterlimit:10;}
</style>
<g>
	<g>
		<g>
			<path d="M40.9,76.6c19.8-0.1,35.8-16.1,35.8-35.8C76.7,21,60.7,5,40.9,5S5.1,21,5.1,40.8c0,3,0.4,6,1.1,8.8h34.9v27H40.9z
				 M13.4,41l-1.1,0.5l-2.9-3.3l0.9-1c24-25.7,24.5-26.2,25.1-26.6c1.9-1.4,4.2-1.9,6.5-1.6c2.3,0.3,4.4,1.6,5.8,3.5s2,4.4,1.6,6.7
				c-0.4,2.2-1.6,4.2-3.4,5.4C45.4,25.3,43.9,26.1,13.4,41z"/>
			<path d="M9.3,53.6h-2c2.6,6.8,7.2,12.6,13.1,16.7v-3.2C20.3,54.5,17.5,53.8,9.3,53.6z"/>
			<path class="st0" d="M40.9,76.6V49.5H6c0.4,1.4,0.8,2.8,1.3,4.1h2c8.1,0.2,10.9,0.9,11.1,13.5v3.2C26.2,74.3,33.2,76.6,40.9,76.6
				C40.8,76.6,40.9,76.6,40.9,76.6z"/>
			<path class="st0" d="M49.5,19.2c0.4-2.3-0.2-4.8-1.6-6.7S44.4,9.4,42.1,9c-2.3-0.3-4.6,0.2-6.5,1.6c-0.7,0.4-1.1,0.9-25.1,26.6
				l-0.9,1l2.9,3.3l1.1-0.5c30.4-14.9,32-15.7,32.7-16.4C47.9,23.4,49.1,21.4,49.5,19.2z"/>
		</g>
		
			<linearGradient id="SVGID_1_" gradientUnits="userSpaceOnUse" x1="-35.4551" y1="386.8322" x2="41.7263" y2="386.8322" gradientTransform="matrix(-0.7071 0.7071 0.7071 0.7071 -232.5025 -233.0623)">
			<stop  offset="0.5583" style="stop-color:#FFFFFF;stop-opacity:0"/>
			<stop  offset="0.5941" style="stop-color:#F7F7F7;stop-opacity:8.550976e-02"/>
			<stop  offset="0.6499" style="stop-color:#E1E1E1;stop-opacity:0.2192"/>
			<stop  offset="0.719" style="stop-color:#BCBCBC;stop-opacity:0.3843"/>
			<stop  offset="0.7985" style="stop-color:#8A8A8A;stop-opacity:0.5745"/>
			<stop  offset="0.8869" style="stop-color:#494949;stop-opacity:0.786"/>
			<stop  offset="0.9763" style="stop-color:#000000"/>
		</linearGradient>
		<path class="st1" d="M15.4,66.1c-14-14-14-36.7,0-50.7c14-14,36.7-14,50.7,0c14,14,14,36.7,0,50.7S29.4,80.1,15.4,66.1"/>
	</g>
	<g>
		<g>
			<path class="st2" d="M123,88.5c0,2.1-0.7,4-1.9,5.3c-4.3,4.6-15.1,3-15.1-5.2V64.4h-5.7V64h5.7v-8.2c0,0,4-0.1,6-5.5
				c0,0,0.2,0,0.4,0c0,0.2,0,6.7,0,13.7h7.6v0.4h-7.6c0,11,0,24.2,0,24.2c0,5.6,4,9.2,8.4,5c1.3-1.3,1.8-3.1,1.8-5.1L123,88.5
				L123,88.5z"/>
			<path class="st2" d="M152.3,68.3c2.7,3,4.1,7.2,4.1,11.7s-1.4,8.7-4.1,11.6c-1.4,1.5-3,2.7-4.9,3.5c-1.9,0.9-4.1,1.3-6.5,1.3
				c-2.3,0-4.5-0.4-6.5-1.3c-1.9-0.8-3.5-2-4.9-3.5c-2.7-3-4.2-7.1-4.2-11.6s1.5-8.7,4.2-11.7c1.4-1.5,3-2.7,4.9-3.5
				c2-0.9,4.1-1.3,6.5-1.3s4.5,0.4,6.5,1.3C149.2,65.6,150.9,66.8,152.3,68.3z M149.8,80.2c0-6-1.2-15.2-7-16.2
				c-0.6-0.1-1.2-0.1-1.9-0.1c-0.6,0-1.1,0-1.7,0.1c-5.9,0.9-7.1,10.1-7.1,16.2c0,5.3,0.8,15.9,8.4,15.9
				C149.1,96.1,149.8,87.2,149.8,80.2z"/>
			<path class="st2" d="M196.3,96h1.2v0.4h-5.8h-0.2h-0.1h-6h-0.1h-0.2h-5.8V96h1.2c3.3-0.1,4.6-0.3,4.6-5.3V76.9
				c0-4.7-0.5-13-7.5-12.5c-2.7,0.3-5,1.5-6.9,3.7c-0.4,0.4-0.8,0.9-1.1,1.5c0,6.3,0,16.3,0,22.1c0.3,3.8,1.6,4.3,4.6,4.3h1.2v0.2
				v0.2c-5.8,0-5.8,0-18.1,0V96h1.2c3.3-0.1,4.6-0.6,4.7-5.3V69.8c-0.1-5-1.3-5.5-4.7-5.5h-1.2v-0.4h12.3c0,0,0,2,0,5
				c0.3-0.3,0.6-0.7,0.8-1c2.3-2.6,5.1-3.9,8.4-3.9c3.4,0,6.6,1.3,9,3.7c2.4,2.3,3.7,5.5,3.8,8.7c0,0.1,0-0.7,0,14.5
				C191.7,95.6,193.3,96,196.3,96z"/>
			<path class="st2" d="M206.8,96.3h-0.2h-5.8v-0.4h1.2c3.3-0.1,4.6-0.6,4.6-5.3V69.7c-0.1-5-1.3-5.5-4.6-5.5h-1.2V64v-0.2H213
				c0,0,0,18.8,0,27.8c0.3,3.9,1.6,4.3,4.6,4.3h1.2v0.4H213h-0.2L206.8,96.3L206.8,96.3z M202.7,59c8.7-9.3,9-9.6,9.2-9.7
				c1.2-0.9,2.9-0.6,3.8,0.6s0.6,2.9-0.6,3.7c-0.2,0.2-0.4,0.3-11.9,6L202.7,59z"/>
			<path class="st2" d="M234.9,64.1c2.2,0,4.3,0.4,6.3,1.2c0.9,0.4,1.9,0.9,2.7,1.4c0-1.7,0-2.6,0-2.6h12.2v0.4H255
				c-3.3,0.1-4.6,0.6-4.6,5.5v37.3c0.1,4.8,1.4,5.3,4.6,5.3h1.2v0.4c-12.2,0-12.2,0-18.1,0v-0.4h1.2c3.1,0,4.4-0.4,4.6-4.3
				c0-4,0-9.7,0-16.2c-0.4,0.7-1.1,1.3-1.7,1.9c-2.1,1.9-4.6,3-7.3,3c-8.1,0-14.7-7.4-14.7-16.4C220.3,71.5,226.8,64.1,234.9,64.1z
				 M235.9,96.6c2.2-0.2,4.3-1.2,6-2.8c0.8-0.8,1.4-1.6,1.9-2.4c0-9.4,0-19.4,0-24.2c-0.9-0.6-1.8-1.1-2.9-1.5
				c-1.3-0.6-2.7-0.9-4.2-1.1c-9-0.9-9.5,9.1-9.5,16.8C227.3,90.4,230.3,97,235.9,96.6z"/>
			<path class="st2" d="M298.2,96h1.2v0.4h-8.2h-4.1c0,0,0-1.9,0-5c-0.3,0.4-0.5,0.8-0.8,1.1c-2.3,2.6-5,3.9-8.4,3.9s-6.7-1.3-9-3.7
				c-2.3-2.4-3.7-5.4-3.7-8.7c0-0.1,0,0,0-15.2c0-3.9-1.6-4.3-4.6-4.3h-1.2v-0.3V64c5.8,0,5.8,0,12.2,0v19.5c0,4.6,0.5,13,7.5,12.5
				c2.7-0.3,5-1.5,6.9-3.7c0.4-0.4,0.8-0.9,1.1-1.5c0-6.3,0-16.1,0-22c0-3.9-1.5-4.3-4.6-4.3h-1.2v-0.2V64c5.8,0,5.8,0,12.2,0v26.6
				C293.6,95.5,294.8,96,298.2,96z"/>
			<path class="st2" d="M307,78.6c0,0.4,0,0.9,0,1.3c0,5.8,0.6,15.9,8.9,15.9c0.4,0,0.7,0,0.9,0c1.3,0,2.6-0.3,3.8-0.8
				c1.3-0.5,2.5-1.3,3.6-2.2c2.2-1.8,3.8-4.3,4.5-7l0.4,0.1c-0.8,2.8-2.4,5.3-4.6,7.2c-1.1,1-2.4,1.8-3.8,2.3
				c-1.4,0.6-2.9,0.9-4.3,0.9c-1.8,0-3.3-0.3-4.9-0.7c-0.6-0.2-1.3-0.4-1.8-0.6c-1.9-0.8-3.6-2-5.1-3.5c-2.8-3-4.3-7.2-4.3-11.7
				s1.6-8.6,4.4-11.6c1.4-1.5,3.1-2.7,5-3.5c2-0.9,4.2-1.3,6.5-1.3c2.1,0,4.3,0.4,6,1.3c1.7,0.8,3.2,2,4.4,3.5
				c2.1,2.6,3.5,7,3.5,10.5H325L307,78.6L307,78.6z M307,78.2h16.5c0-0.9-0.1-2-0.1-2.8c-0.5-5.6-2.1-11.2-6.6-11.7
				c-1.3-0.1-2.1-0.1-3.3,0.2C308.6,65.2,307.2,72.5,307,78.2z"/>
		</g>
	</g>
</g>
</svg>
