<?xml version="1.0" encoding="utf-8"?>
<!-- Generator: Adobe Illustrator 24.1.0, SVG Export Plug-In . SVG Version: 6.00 Build 0)  -->
<svg version="1.1" id="Isolationsmodus" xmlns="http://www.w3.org/2000/svg" xmlns:xlink="http://www.w3.org/1999/xlink" x="0px"
	 y="0px" viewBox="0 0 87.5 141.1" style="enable-background:new 0 0 87.5 141.1;" xml:space="preserve">
<style type="text/css">
	.st0{fill:#394076;}
</style>
<g>
	<path class="st0" d="M20.3,84.2c0,13,10.5,23.5,23.5,23.5c13,0,23.5-10.5,23.5-23.5V68.5h-47V84.2z"/>
	<path class="st0" d="M54,27.7c-1.8,0-3.2-1.4-3.2-3.2s1.4-3.2,3.2-3.2h10.8C61,13.5,53,8.2,43.8,8.2c-9.2,0-17.2,5.3-21.1,13.1
		h10.8c1.8,0,3.2,1.4,3.2,3.2s-1.4,3.2-3.2,3.2H20.6c-0.2,1.3-0.4,2.6-0.4,4v2.1h13.2c1.8,0,3.2,1.4,3.2,3.2s-1.4,3.2-3.2,3.2H20.3
		v6.1h13.2c1.8,0,3.2,1.4,3.2,3.2s-1.4,3.2-3.2,3.2H20.3v9.7h47v-9.7H54c-1.8,0-3.2-1.4-3.2-3.2s1.4-3.2,3.2-3.2h13.2v-6.1H54
		c-1.8,0-3.2-1.4-3.2-3.2s1.4-3.2,3.2-3.2h13.2v-2.1c0-1.4-0.1-2.7-0.4-4H54z"/>
	<path class="st0" d="M48,133v-10.3c17.5-2.1,31.1-17,31.1-35.1V68.5h-7.5v17.3c0,15.4-12.5,27.8-27.8,27.8
		c-15.4,0-27.8-12.5-27.8-27.8V68.5H8.4v19.1c0,18.1,13.6,33,31.1,35.1V133"/>
</g>
</svg>
