<svg version="1.1" id="Isolationsmodus" xmlns="http://www.w3.org/2000/svg" x="0" y="0" viewBox="0 0 500 500" xml:space="preserve"><style>.st0{fill:#394076}</style><path class="st0" d="M226.5 268.69c0 12.98 10.52 23.5 23.5 23.5s23.5-10.52 23.5-23.5v-15.63h-47v15.63zm33.75-56.5c-1.78 0-3.22-1.44-3.22-3.22 0-1.78 1.44-3.22 3.22-3.22h10.8c-3.84-7.74-11.83-13.06-21.06-13.06-9.23 0-17.21 5.32-21.06 13.06h10.8c1.78 0 3.22 1.44 3.22 3.22 0 1.78-1.44 3.22-3.22 3.22h-12.9c-.22 1.3-.35 2.64-.35 4v2.14h13.25c1.78 0 3.22 1.44 3.22 3.22s-1.44 3.22-3.22 3.22H226.5v6.14h13.25c1.78 0 3.22 1.44 3.22 3.22 0 1.78-1.44 3.22-3.22 3.22H226.5v9.73h47v-9.73h-13.25c-1.78 0-3.22-1.44-3.22-3.22 0-1.78 1.44-3.22 3.22-3.22h13.25v-6.14h-13.25c-1.78 0-3.22-1.44-3.22-3.22s1.44-3.22 3.22-3.22h13.25v-2.14c0-1.36-.12-2.7-.35-4h-12.9z"/><path class="st0" d="M254.19 317.49v-10.3c17.53-2.07 31.13-16.98 31.13-35.07v-19.06h-7.5v17.31c0 15.37-12.46 27.82-27.82 27.82-15.37 0-27.82-12.46-27.82-27.82v-17.31h-7.5v19.06c0 18.09 13.6 33 31.13 35.07v10.3"/></svg>